<svg width="1280" height="720" xmlns="http://www.w3.org/2000/svg" xmlns:xlink="http://www.w3.org/1999/xlink" overflow="hidden"><defs><filter id="fx0" x="-10%" y="-10%" width="120%" height="120%" filterUnits="userSpaceOnUse" primitiveUnits="userSpaceOnUse"><feComponentTransfer color-interpolation-filters="sRGB"><feFuncR type="discrete" tableValues="0 0"/><feFuncG type="discrete" tableValues="0 0"/><feFuncB type="discrete" tableValues="0 0"/><feFuncA type="linear" slope="0.431373" intercept="0"/></feComponentTransfer><feGaussianBlur stdDeviation="1.07404 1.07404"/></filter><clipPath id="clip1"><rect x="42" y="35" width="708" height="68"/></clipPath></defs><g><rect x="0" y="0" width="1280" height="720" fill="#FFFFFF"/><path d="M690.533 411.5 690.533 495.601 528 495.601 528 492.601 689.033 492.601 687.533 494.101 687.533 411.5ZM681.533 411.5C681.533 407.358 684.891 404 689.033 404 693.175 404 696.533 407.358 696.533 411.5 696.533 415.642 693.175 419 689.033 419 684.891 419 681.533 415.642 681.533 411.5ZM529.5 498.601 520.5 494.101 529.5 489.601Z" fill="#4BACC6"/><text font-family="BIZ UDPGothic,BIZ UDPGothic_MSFontService,sans-serif" font-weight="400" font-size="16" transform="translate(607.013 433)">報告</text><path d="M324.5 351.5 510.5 351.5 520.5 361.5 520.5 411.5 520.5 411.5 334.5 411.5 324.5 401.5 324.5 351.5Z" stroke="#7030A0" stroke-width="3" stroke-linejoin="round" stroke-miterlimit="10" fill="#FFFFFF" fill-rule="evenodd"/><text font-family="BIZ UDPGothic,BIZ UDPGothic_MSFontService,sans-serif" font-weight="700" font-size="19" transform="translate(347.29 379)">観光振興戦略会議</text><text font-family="BIZ UDPGothic,BIZ UDPGothic_MSFontService,sans-serif" font-weight="700" font-size="19" transform="translate(356.624 401)">（意思決定機関）</text><path d="M224.5 381.167 317.498 381.167 317.498 381.833 224.5 381.833ZM316.165 377.5 324.165 381.5 316.165 385.5Z"/><path d="M5.06469e-07-0.333333 62.4306-0.333238 62.4306 0.333428-5.06469e-07 0.333333ZM61.0972-3.99991 69.0972 0.000104987 61.0972 4.00009Z" transform="matrix(-1 0 0 1 589.597 368.5)"/><path d="M0.333324-0.00247307 0.676409 46.239 0.00976029 46.2439-0.333324 0.00247307ZM4.33308 44.8785 0.392546 52.9079-3.6667 44.9378Z" transform="matrix(1 0 0 -1 422.5 464.408)"/><text font-family="BIZ UDPGothic,BIZ UDPGothic_MSFontService,sans-serif" font-weight="400" font-size="16" transform="translate(531.626 360)">構成員</text><text font-family="BIZ UDPGothic,BIZ UDPGothic_MSFontService,sans-serif" font-weight="400" font-size="16" transform="translate(252.505 373)">構成員</text><text font-family="BIZ UDPGothic,BIZ UDPGothic_MSFontService,sans-serif" font-weight="400" font-size="16" transform="translate(426.775 445)">構成員</text><text font-family="BIZ UDPGothic,BIZ UDPGothic_MSFontService,sans-serif" font-weight="400" font-size="16" transform="translate(523.548 410)">決定事項</text><path d="M521.501 388.167 582.777 388.379 582.775 389.046 521.499 388.833ZM581.457 384.708 589.443 388.735 581.429 392.708Z"/><path d="M1.5-2.51854e-06 1.50009 55.0285-1.49991 55.0285-1.5 2.51854e-06ZM-7.5 1.25927e-05C-7.50001-4.14212-4.14215-7.49999-1.25927e-05-7.5 4.14212-7.50001 7.49999-4.14215 7.5-1.25927e-05 7.50001 4.14212 4.14215 7.49999 1.25927e-05 7.5-4.14212 7.50001-7.49999 4.14215-7.5 1.25927e-05ZM4.50009 53.5285 0.000104987 62.5285-4.49991 53.5285Z" fill="#4BACC6" transform="matrix(1 0 0 -1 422.5 586.029)"/><path d="M324.5 586.5 510.667 586.5 520.5 596.333 520.5 645.5 520.5 645.5 334.333 645.5 324.5 635.667 324.5 586.5Z" stroke="#3A86FF" stroke-width="3" stroke-linejoin="round" stroke-miterlimit="10" fill="#FFFFFF" fill-rule="evenodd"/><text font-family="BIZ UDPGothic,BIZ UDPGothic_MSFontService,sans-serif" font-weight="700" font-size="19" transform="translate(393.565 624)">宿泊客</text><path d="M1.5801e-06-1.5 92.165-1.4999 92.165 1.5001-1.5801e-06 1.5ZM-7.90048e-06 7.5C-4.14214 7.5-7.5 4.14213-7.5-7.90048e-06-7.5-4.14214-4.14213-7.5 7.90048e-06-7.5 4.14214-7.5 7.5-4.14213 7.5 7.90048e-06 7.5 4.14214 4.14213 7.5-7.90048e-06 7.5ZM90.665-4.4999 99.665 0.000104987 90.665 4.5001Z" fill="#4BACC6" transform="matrix(-1 0 0 1 324.165 493.5)"/><path d="M324.5 464.5 510.667 464.5 520.5 474.333 520.5 523.5 520.5 523.5 334.333 523.5 324.5 513.667 324.5 464.5Z" stroke="#3A86FF" stroke-width="3" stroke-linejoin="round" stroke-miterlimit="10" fill="#FFFFFF" fill-rule="evenodd"/><text font-family="BIZ UDPGothic,BIZ UDPGothic_MSFontService,sans-serif" font-weight="700" font-size="19" transform="translate(374.898 502)">宿泊事業者</text><text font-family="BIZ UDPGothic,BIZ UDPGothic_MSFontService,sans-serif" font-weight="400" font-size="16" transform="translate(439.635 560)">宿泊税（定率）</text><text font-family="BIZ UDPGothic,BIZ UDPGothic_MSFontService,sans-serif" font-weight="400" font-size="16" transform="translate(250.555 488)">宿泊税</text><path d="M853.5 358.5 1175.83 358.5 1198.5 381.167 1198.5 494.5 1198.5 494.5 876.167 494.5 853.5 471.833 853.5 358.5Z" stroke="#000000" stroke-width="1.33333" stroke-linejoin="round" stroke-miterlimit="10" fill="#FFFFFF" fill-rule="evenodd"/><text font-family="BIZ UDPGothic,BIZ UDPGothic_MSFontService,sans-serif" font-weight="700" font-size="19" transform="translate(878.917 424)">自然環境、文化財、伝統文化の保全・</text><text font-family="BIZ UDPGothic,BIZ UDPGothic_MSFontService,sans-serif" font-weight="700" font-size="19" transform="translate(886.583 446)">保護・継承・活用に向けた取り組み</text><path d="M853.5 509.5 1175.83 509.5 1198.5 532.167 1198.5 645.5 1198.5 645.5 876.167 645.5 853.5 622.833 853.5 509.5Z" stroke="#000000" stroke-width="1.33333" stroke-linejoin="round" stroke-miterlimit="10" fill="#FFFFFF" fill-rule="evenodd"/><text font-family="BIZ UDPGothic,BIZ UDPGothic_MSFontService,sans-serif" font-weight="700" font-size="19" transform="translate(914.583 586)">人材育成にかかる取り組み</text><path d="M840.5 165.5 1193.71 165.5 1211.5 183.286 1211.5 668.5 1211.5 668.5 858.286 668.5 840.5 650.714 840.5 165.5Z" stroke="#70AD47" stroke-width="3" stroke-linejoin="round" stroke-miterlimit="10" fill="none" fill-rule="evenodd"/><text font-family="BIZ UDPGothic,BIZ UDPGothic_MSFontService,sans-serif" font-weight="700" font-size="19" transform="translate(988.083 194)">使途の柱</text><path d="M786.5 380 832.817 380 832.817 383 786.5 383ZM786.5 389C782.358 389 779 385.642 779 381.5 779 377.358 782.358 374 786.5 374 790.642 374 794 377.358 794 381.5 794 385.642 790.642 389 786.5 389ZM831.317 377 840.317 381.5 831.317 386Z" fill="#4BACC6"/><text font-family="BIZ UDPGothic,BIZ UDPGothic_MSFontService,sans-serif" font-weight="400" font-size="16" transform="translate(797.091 373)">支出</text><path d="M853.5 207.5 1175.67 207.5 1198.5 230.334 1198.5 344.5 1198.5 344.5 876.334 344.5 853.5 321.666 853.5 207.5Z" stroke="#000000" stroke-width="1.33333" stroke-linejoin="round" stroke-miterlimit="10" fill="#FFFFFF" fill-rule="evenodd"/><text font-family="BIZ UDPGothic,BIZ UDPGothic_MSFontService,sans-serif" font-weight="700" font-size="19" transform="translate(874.253 262)">景観まちづくりや伝統的・歴史的町並</text><text font-family="BIZ UDPGothic,BIZ UDPGothic_MSFontService,sans-serif" font-weight="700" font-size="19" transform="translate(874 284)">みの保存・整備、エリアマネジメントに</text><text font-family="BIZ UDPGothic,BIZ UDPGothic_MSFontService,sans-serif" font-weight="700" font-size="19" transform="translate(961.167 307)">向けた取り組み</text><g clip-path="url(#clip1)" filter="url(#fx0)" transform="translate(1 3)"><g><path d="M39.8438-25.6562 57.0938-25.6562 57.0938 6.09375 52.1562 6.09375 52.1562 2.75 28.375 2.75 28.375 6.09375 23.5 6.09375 23.5-25.6562 35.0625-25.6562C35.8125-28.0729 36.375-30.2083 36.75-32.0625L19.7812-32.0625 19.7812-36.3438 61.25-36.3438 61.25-32.0625 41.9062-32.0625C41.2188-29.4792 40.5312-27.3438 39.8438-25.6562ZM52.1562-21.6875 28.375-21.6875 28.375-13.875 52.1562-13.875ZM28.375-9.78125 28.375-1.46875 52.1562-1.46875 52.1562-9.78125ZM34.3125-48.375 59.8438-48.375 59.8438-38.25 54.8438-38.25 54.8438-44.3438 9.03125-44.3438 9.03125-36.0938 4.03125-36.0938 4.03125-48.375 29.25-48.375 29.25-54.7188 34.3125-54.7188ZM14.7812-28.9062 14.7812 6.09375 9.90625 6.09375 9.90625-21.875C7.98958-19.4167 5.91667-17.1771 3.6875-15.1562L1.28125-19.3125C7.32292-24.7917 12.1042-32.0729 15.625-41.1562L20.0938-39.375C18.4062-35.4167 16.6354-31.9271 14.7812-28.9062ZM98.5938-44.2812C99.7188-47.4479 100.708-50.8854 101.562-54.5938L107-53.6875C105.854-49.9583 104.74-46.8229 103.656-44.2812L122.5-44.2812 122.5 5.875 117.5 5.875 117.5 1.40625 91.0625 1.40625 91.0625 5.875 86.0625 5.875 86.0625-44.2812ZM91.0625-39.9375 91.0625-24.3125 117.5-24.3125 117.5-39.9375ZM91.0625-20.0312 91.0625-3.0625 117.5-3.0625 117.5-20.0312ZM78.1562-40.5625C74.5938-44.7292 71.2812-48.0208 68.2188-50.4375L71.5625-53.875C75.3125-51.1042 78.6771-47.9479 81.6562-44.4062ZM75.6562-24.3125C72.4062-28.0833 69.0104-31.3958 65.4688-34.25L68.875-37.8125C72.4583-35.2292 75.9271-32.0312 79.2812-28.2188ZM66.6875 1.65625C70.7917-3.76042 74.5833-10.6458 78.0625-19L82.0938-15.75C78.5938-7.22917 74.8646-0.145833 70.9062 5.5ZM140.281-23.3438C137.99-17.0312 135.135-11.5208 131.719-6.8125L129.031-11.5312C133.948-17.9479 137.51-24.8646 139.719-32.2812L129.781-32.2812 129.781-36.6875 140.281-36.6875 140.281-47.0625C137.344-46.3958 134.698-45.8854 132.344-45.5312L130.375-49.375C138.083-50.5417 144.76-52.2396 150.406-54.4688L153.344-50.9062C150.906-49.9687 148.24-49.1042 145.344-48.3125L145.031-48.2188 145.031-36.6875 153.469-36.6875 153.469-32.2812 145.031-32.2812 145.031-27.375C148.365-24.9792 151.417-22.3021 154.188-19.3438L151.188-15.25C149.167-17.9792 147.115-20.3542 145.031-22.375L145.031 6.0625 140.281 6.0625ZM163.094-19.8438 156.219-19.8438 156.219-41.0938 173.469-41.0938C175.74-45.7188 177.625-50.3021 179.125-54.8438L183.938-53.0625C181.812-48.0417 179.854-44.0521 178.062-41.0938L186.5-41.0938 186.5-19.8438 177.656-19.8438 177.656-1.90625C177.656-0.927083 177.917-0.34375 178.438-0.15625 178.875 0.0104167 180.094 0.09375 182.094 0.09375 183.615 0.09375 184.562-0.0729167 184.938-0.40625 185.604-0.989583 186-3.92708 186.125-9.21875L190.594-7.5C190.448-3.97917 190.24-1.35417 189.969 0.375 189.594 2.66667 188.281 4.05208 186.031 4.53125 184.927 4.78125 183.167 4.90625 180.75 4.90625 177.562 4.90625 175.458 4.52083 174.438 3.75 173.521 3.08333 173.062 1.875 173.062 0.125L173.062-19.8438 167.75-19.8438 167.75-18.1875C167.75-10.5417 165.969-4.70833 162.406-0.6875 160.365 1.625 157.188 3.8125 152.875 5.875L149.625 2.0625C152.521 0.854167 154.802-0.395833 156.469-1.6875 159.677-4.20833 161.698-7.625 162.531-11.9375 162.906-13.7708 163.094-15.875 163.094-18.25ZM181.688-24.0625 181.688-36.8125 160.969-36.8125 160.969-24.0625ZM162.938-41.8438C161.396-46.2396 159.802-49.7604 158.156-52.4062L162.188-54.4062C164.208-51.2188 165.958-47.7188 167.438-43.9062ZM227.906-46.4062 210.938-46.4062 210.938-50.0625 221.219-50.0625C220.406-51.2708 219.5-52.4479 218.5-53.5938L222.969-55C223.927-53.7292 224.938-52.0833 226-50.0625L236.938-50.0625C237-50.1667 237.146-50.4375 237.375-50.875 238.125-52.2083 238.781-53.6042 239.344-55.0625L244.281-53.9062C243.531-52.5521 242.729-51.2708 241.875-50.0625L252.969-50.0625 252.969-46.4062 233.156-46.4062C232.677-45.3646 232.208-44.4479 231.75-43.6562L247.656-43.6562 247.656-22.3438 215.938-22.3438 215.938-43.6562 226.75-43.6562 226.906-44C227.302-44.8542 227.635-45.6562 227.906-46.4062ZM220.594-40.5312 220.594-37.5625 242.938-37.5625 242.938-40.5312ZM220.594-34.625 220.594-31.625 242.938-31.625 242.938-34.625ZM220.594-28.625 220.594-25.4062 242.938-25.4062 242.938-28.625ZM209.469-25.0625C213.406-21.4167 219.031-19.5938 226.344-19.5938L254.719-19.5938C253.906-18.4062 253.302-17.0625 252.906-15.5625L241.656-15.5625 241.656-12.2188 254.406-12.2188 254.406-8.125 241.656-8.125 241.656 1.28125C241.656 3.07292 241.198 4.34375 240.281 5.09375 239.469 5.76042 238.073 6.09375 236.094 6.09375 233.24 6.09375 230.229 5.9375 227.062 5.625L225.969 1.15625C229.594 1.57292 232.521 1.78125 234.75 1.78125 235.583 1.78125 236.115 1.625 236.344 1.3125 236.51 1.0625 236.594 0.645833 236.594 0.0625L236.594-8.125 193.719-8.125 193.719-12.2188 236.594-12.2188 236.594-15.5625 226.438-15.5625C218.25-15.5625 211.854-17.7917 207.25-22.25 204.375-19.3125 201.146-16.5938 197.562-14.0938L194.938-18.125C198.25-19.9792 201.49-22.2083 204.656-24.8125L204.656-33.4688 195.188-33.4688 195.188-37.6875 209.469-37.6875ZM206.125-43.5938C203.042-46.6562 200.01-49.1875 197.031-51.1875L200.125-54.4062C203.396-52.4271 206.49-50.0104 209.406-47.1562ZM217.156 3C213.677 0.0833334 209.979-2.5625 206.062-4.9375L209.344-8C213.49-5.6875 217.198-3.16667 220.469-0.4375ZM291.156-51.4688 291.156-47.4375C291.156-35.1042 293.562-25.1354 298.375-17.5312 302.792-10.5729 309.469-4.625 318.406 0.3125L314.875 4.8125C305.958-0.0833331 298.885-6.9375 293.656-15.75 291.344-19.6667 289.615-24.4062 288.469-29.9688 287.156-23.3854 285.073-17.6875 282.219-12.875 277.802-5.4375 271.052 0.625 261.969 5.3125L258.438 0.96875C269.5-4.21875 277.115-11.8333 281.281-21.875 284.031-28.5625 285.708-36.8438 286.312-46.7188L270.031-46.7188 270.031-51.4688ZM352.5-25.0625C351.5-25.0208 350.281-24.9479 348.844-24.8438 348.177-24.8021 345.688-24.6979 341.375-24.5312L340.094-28.75C342.323-28.7917 345.708-28.8854 350.25-29.0312L350.594-29.375C351.156-29.8958 352.281-30.9688 353.969-32.5938 350.531-36.6979 346.458-40.6458 341.75-44.4375L345.031-47.5C346.76-46.125 348.26-44.8333 349.531-43.625 352.49-47.0833 355.104-50.8542 357.375-54.9375L361.844-52.75C358.552-47.9792 355.385-44.0312 352.344-40.9062 353.885-39.3021 355.458-37.5729 357.062-35.7188L357.938-36.6562C362.104-41.0521 365.781-45.3333 368.969-49.5L373.062-46.9375C368.208-41 362.635-35.1042 356.344-29.25 358.469-29.375 360.062-29.4583 361.125-29.5 362.667-29.5833 366.573-29.8437 372.844-30.2812 371.135-32.7812 369.521-34.9375 368-36.75L371.781-38.875C375.302-34.8958 378.542-30.3229 381.5-25.1562L377.469-22.875C376.406-24.7083 375.594-26.0521 375.031-26.9062 370.24-26.3229 364.51-25.8229 357.844-25.4062 356.865-23.7396 355.823-22.1667 354.719-20.6875L372.938-20.6875 375.938-18C372.396-13.1458 368.479-9.08333 364.188-5.8125 369.125-2.72917 375.26-0.34375 382.594 1.34375L379.781 5.875C372.552 3.89583 366.021 0.916667 360.188-3.0625 353.521 1.20833 346.74 4.22917 339.844 6L337.219 1.71875C344.031 0.15625 350.438-2.38542 356.438-5.90625 356.333-6.01042 356.208-6.125 356.062-6.25 353.542-8.35417 351.031-10.8854 348.531-13.8438 346.573-12.0521 344.292-10.4062 341.688-8.90625L338.5-12.1875C344.062-15.1667 348.729-19.4583 352.5-25.0625ZM360.406-8.5C363.969-11.0625 366.885-13.8021 369.156-16.7188L351.562-16.7188C354.208-13.6979 357.156-10.9583 360.406-8.5ZM335.25-29.0938 335.25 6.09375 330.312 6.09375 330.312-22.8438C328.354-20.5938 326.156-18.375 323.719-16.1875L321.156-20.5312C327.052-25.4479 332.198-32.0417 336.594-40.3125L340.812-38.0312C339.062-34.8229 337.208-31.8438 335.25-29.0938ZM321.781-39.8125C327.073-43.875 331.427-48.7396 334.844-54.4062L339.062-52.1562C335.083-45.7188 330.24-40.3438 324.531-36.0312ZM419.656-2.8125C424.635-4.08333 428.687-6.05208 431.812-8.71875 436-12.2812 438.094-17.5 438.094-24.375 438.094-28.8958 437.01-32.875 434.844-36.3125 431.885-41.0625 427.01-43.9375 420.219-44.9375 418.781-31.2083 415.875-20.1042 411.5-11.625 409.646-8.02083 407.833-5.42708 406.062-3.84375 404.167-2.15625 402.187-1.3125 400.125-1.3125 397.354-1.3125 394.854-2.66667 392.625-5.375 391.417-6.8125 390.427-8.625 389.656-10.8125 388.573-13.8125 388.031-17.0521 388.031-20.5312 388.031-26.5104 389.708-31.9479 393.062-36.8438 396.375-41.7188 400.635-45.1875 405.844-47.25 409.385-48.6458 413.198-49.3438 417.281-49.3438 423.615-49.3438 429.062-47.7604 433.625-44.5938 437.583-41.8229 440.385-38.1354 442.031-33.5312 443.031-30.7396 443.531-27.7396 443.531-24.5312 443.531-10.9062 436.469-2.19792 422.344 1.59375ZM415.5-45.0625C410.646-44.7708 406.51-43.3229 403.094-40.7188 397.906-36.7812 394.75-31.6875 393.625-25.4375 393.333-23.8333 393.187-22.25 393.188-20.6875 393.187-15.7708 394.26-11.9271 396.406-9.15625 397.656-7.55208 398.948-6.75 400.281-6.75 401.802-6.75 403.323-7.88542 404.844-10.1562 407.323-13.8854 409.552-18.9167 411.531-25.25 413.198-30.5833 414.521-37.1875 415.5-45.0625ZM463.312-6.5625C465.104-4.8125 467.198-3.38542 469.594-2.28125 471.177-1.55208 473.271-0.947917 475.875-0.46875 478.833 0.0729167 481.833 0.34375 484.875 0.34375L511.031 0.34375C510.448 1.42708 509.896 2.875 509.375 4.6875L484.875 4.6875C478.167 4.6875 472.792 3.80208 468.75 2.03125 466.062 0.864583 463.583-0.864583 461.312-3.15625L460.938-2.71875C457.958 0.90625 454.99 3.86458 452.031 6.15625L449.406 1.625C452.469-0.416667 455.479-2.80208 458.438-5.53125L458.438-22.9062 449.594-22.9062 449.594-27.3125 463.312-27.3125ZM507.188-38.4062 507.188-7.21875C507.187-5.80208 506.812-4.73958 506.062-4.03125 505.312-3.30208 503.958-2.9375 502-2.9375 499.792-2.9375 497.958-3.02083 496.5-3.1875L495.625-7.28125C497.521-7.07292 499.323-6.96875 501.031-6.96875 501.823-6.96875 502.292-7.15625 502.438-7.53125 502.542-7.78125 502.594-8.1875 502.594-8.75L502.594-34.5625 490.031-34.5625 490.031-30.1562 500.656-30.1562 500.656-26.4375 490.031-26.4375 490.031-22.0312 498.125-22.0312 498.125-9.53125 482.031-9.53125 482.031-6.21875 477.938-6.21875 477.938-22.0312 485.625-22.0312 485.625-26.4375 475.562-26.4375 475.562-30.1562 485.625-30.1562 485.625-34.5625 473.594-34.5625 473.594-3.125 469-3.125 469-38.4062 478.25-38.4062C477.25-41.0104 476.271-43.1875 475.312-44.9375L465.969-44.9375 465.969-48.9688 485.375-48.9688 485.375-54.7188 490.094-54.7188 490.094-48.9688 509.344-48.9688 509.344-44.9375 500.594-44.9375C499.74-42.9167 498.687-40.7396 497.438-38.4062ZM480.062-44.9375C481.083-42.8333 482.021-40.6562 482.875-38.4062L492.688-38.4062C493.625-40.2188 494.625-42.3958 495.688-44.9375ZM482.031-18.5 482.031-13.125 493.875-13.125 493.875-18.5ZM460.656-39.2812C457.802-43.6354 454.792-47.3125 451.625-50.3125L455.156-53.1875C458.615-50.0625 461.688-46.5625 464.375-42.6875ZM548.156-2.84375 574.188-2.84375 574.188 1.84375 513.719 1.84375 513.719-2.84375 524.219-2.84375 524.219-33.0938 529.406-33.0938 529.406-2.84375 543.031-2.84375 543.031-46.2188 516.719-46.2188 516.719-50.8125 572.219-50.8125 572.219-46.2188 548.156-46.2188 548.156-28.4062 567.156-28.4062 567.156-23.9375 548.156-23.9375ZM597.094-46C598.198-44.2917 599.146-42.5417 599.938-40.75L595.406-39.1562C594.594-41.2604 593.49-43.5417 592.094-46L588.188-46C586.625-43.5625 584.677-41.3229 582.344-39.2812L578.5-42.0938C582.479-45.3854 585.448-49.6771 587.406-54.9688L592.375-54.125C591.771-52.5625 591.156-51.1771 590.531-49.9688L606.469-49.9688 606.469-46ZM623.5-46C624.542-44.5 625.604-42.8125 626.688-40.9375L622.219-39.3438C621.115-41.5729 619.823-43.7917 618.344-46L614.438-46C613-43.5417 611.646-41.6042 610.375-40.1875L610.375-36.5938 636.094-36.5938 636.094-25.9062 631.094-25.9062 631.094-32.75 584.844-32.75 584.844-25.9062 579.906-25.9062 579.906-36.5938 605.312-36.5938 605.312-40.4375 609.875-40.4375 606.531-42.9375C609.531-46.2083 611.792-50.2396 613.312-55.0312L618.25-54.25C617.604-52.5417 617.01-51.1146 616.469-49.9688L636.875-49.9688 636.875-46ZM627-28.0938 627-15.0312 593.219-15.0312 593.219-10.3125 630.156-10.3125 630.156 6.09375 625.031 6.09375 625.031 3.40625 593.219 3.40625 593.219 6.09375 588.094 6.09375 588.094-28.0938ZM593.219-24.4375 593.219-18.75 622.031-18.75 622.031-24.4375ZM593.219-6.59375 593.219-0.4375 625.031-0.4375 625.031-6.59375ZM655.312-46.5312 655.312-31.625 662.281-31.625 662.281-27.0312 655.312-27.0312 655.312-11.375C658.25-12.5 660.594-13.4479 662.344-14.2188L662.812-9.6875C657.083-6.97917 650.333-4.35417 642.562-1.8125L641.031-6.8125C644.156-7.64583 647.312-8.60417 650.5-9.6875L650.5-27.0312 642.75-27.0312 642.75-31.625 650.5-31.625 650.5-46.5312 642-46.5312 642-51.125 663.188-51.125 663.188-46.5312ZM699.094-51.8438 699.094-20.75 684.344-20.75 684.344-13.3125 700.188-13.3125 700.188-9.03125 684.344-9.03125 684.344-0.6875 702.469-0.6875 702.469 3.71875 660.406 3.71875 660.406-0.6875 679.656-0.6875 679.656-9.03125 664.75-9.03125 664.75-13.3125 679.656-13.3125 679.656-20.75 665.531-20.75 665.531-51.8438ZM670.062-47.625 670.062-38.4688 679.656-38.4688 679.656-47.625ZM670.062-34.25 670.062-24.9062 679.656-24.9062 679.656-34.25ZM694.5-24.9062 694.5-34.25 684.344-34.25 684.344-24.9062ZM694.5-38.4688 694.5-47.625 684.344-47.625 684.344-38.4688Z" fill="#595959" transform="translate(43.7528 93)"/></g></g><text fill="#595959" font-family="BIZ UDPGothic,BIZ UDPGothic_MSFontService,sans-serif" font-weight="400" font-size="64" transform="translate(42.4744 93)">宿泊税導入後の適正管理</text><path d="M324.5 165.5 510.667 165.5 520.5 175.333 520.5 224.5 520.5 224.5 334.333 224.5 324.5 214.667 324.5 165.5Z" stroke="#FF9770" stroke-width="3" stroke-linejoin="round" stroke-miterlimit="10" fill="#FFFFFF" fill-rule="evenodd"/><text font-family="BIZ UDPGothic,BIZ UDPGothic_MSFontService,sans-serif" font-weight="700" font-size="19" transform="translate(379.565 204)">県・自治体</text><path d="M7.49999-1.49999 99.665-1.49989 99.665 1.5001 7.49999 1.50001ZM9 4.50001 0 0 9-4.49999ZM99.665-7.49989C103.807-7.49989 107.165-4.14202 107.165 0.000112887 107.165 4.14225 103.807 7.50011 99.665 7.5001 95.5228 7.5001 92.165 4.14223 92.165 9.70864e-05 92.165-4.14204 95.5229-7.4999 99.665-7.49989Z" fill="#4BACC6" transform="matrix(-1 0 0 1 324.165 195.5)"/><text font-family="BIZ UDPGothic,BIZ UDPGothic_MSFontService,sans-serif" font-weight="400" font-size="16" transform="translate(252.171 168)">宿泊税</text><text font-family="BIZ UDPGothic,BIZ UDPGothic_MSFontService,sans-serif" font-weight="400" font-size="16" transform="translate(252.171 187)">（一部）</text><path d="M520.5 270 690.533 270 690.533 344.484 687.533 344.484 687.533 271.5 689.033 273 520.5 273ZM520.5 279C516.358 279 513 275.642 513 271.5 513 267.358 516.358 264 520.5 264 524.642 264 528 267.358 528 271.5 528 275.642 524.642 279 520.5 279ZM693.533 342.984 689.033 351.984 684.533 342.984Z" fill="#4BACC6"/><path d="M324.5 241.5 510.5 241.5 520.5 251.5 520.5 301.5 520.5 301.5 334.5 301.5 324.5 291.5 324.5 241.5Z" stroke="#FF9770" stroke-width="3" stroke-linejoin="round" stroke-miterlimit="10" fill="#FFFFFF" fill-rule="evenodd"/><text font-family="BIZ UDPGothic,BIZ UDPGothic_MSFontService,sans-serif" font-weight="700" font-size="19" transform="translate(337.565 268)">沖縄県観光振興基金</text><text font-family="BIZ UDPGothic,BIZ UDPGothic_MSFontService,sans-serif" font-weight="700" font-size="19" transform="translate(393.565 290)">（既設）</text><path d="M7.49999-1.49999 99.2724-1.49989 99.2724 1.5001 7.49999 1.50001ZM9 4.50001 0 0 9-4.49999ZM99.2724-7.49989C103.415-7.49989 106.772-4.14202 106.772 0.000112919 106.772 4.14225 103.415 7.50011 99.2724 7.5001 95.1303 7.5001 91.7724 4.14223 91.7724 9.70551e-05 91.7724-4.14204 95.1303-7.4999 99.2724-7.49989Z" fill="#4BACC6" transform="matrix(-1 0 0 1 323.772 271.5)"/><path d="M590.5 351.5 776.5 351.5 786.5 361.5 786.5 411.5 786.5 411.5 600.5 411.5 590.5 401.5 590.5 351.5Z" stroke="#FF9770" stroke-width="3" stroke-linejoin="round" stroke-miterlimit="10" fill="#FFFFFF" fill-rule="evenodd"/><text font-family="BIZ UDPGothic,BIZ UDPGothic_MSFontService,sans-serif" font-weight="700" font-size="19" transform="translate(632.14 379)">基金運用主体</text><text font-family="BIZ UDPGothic,BIZ UDPGothic_MSFontService,sans-serif" font-weight="700" font-size="19" transform="translate(634.72 401)">（例：</text><text font-family="BIZ UDPGothic,BIZ UDPGothic_MSFontService,sans-serif" font-weight="700" font-size="19" transform="translate(672.053 401)">OCVB</text><text font-family="BIZ UDPGothic,BIZ UDPGothic_MSFontService,sans-serif" font-weight="700" font-size="19" transform="translate(732.22 401)">）</text><text font-family="BIZ UDPGothic,BIZ UDPGothic_MSFontService,sans-serif" font-weight="400" font-size="16" transform="translate(251.131 246)">宿泊税</text><text font-family="BIZ UDPGothic,BIZ UDPGothic_MSFontService,sans-serif" font-weight="400" font-size="16" transform="translate(251.131 265)">（一部）</text><text font-family="BIZ UDPGothic,BIZ UDPGothic_MSFontService,sans-serif" font-weight="400" font-size="16" transform="translate(605.251 262)">委託</text><path d="M74.5001 165.5 211.852 165.5 224.5 178.148 224.5 523.5 224.5 523.5 87.1479 523.5 74.5001 510.852 74.5001 165.5Z" stroke="#FF006E" stroke-width="3" stroke-linejoin="round" stroke-miterlimit="10" fill="#FFFFFF" fill-rule="evenodd"/><text font-family="BIZ UDPGothic,BIZ UDPGothic_MSFontService,sans-serif" font-weight="700" font-size="19" transform="translate(102.52 342)">地方自治体</text><text font-family="BIZ UDPGothic,BIZ UDPGothic_MSFontService,sans-serif" font-weight="700" font-size="19" transform="translate(97.8533 364)">（県・市町村）</text></g></svg>